<svg xmlns="http://www.w3.org/2000/svg" width="1320" height="1020" viewBox="0 0 1320 1020" role="img"><defs><style>.title{font:800 24px Arial,sans-serif;letter-spacing:.8px;fill:#111827}.drawingTitle{font:800 24px Arial,sans-serif;letter-spacing:.5px;fill:#111827}.sheetno{font:900 34px Arial,sans-serif;fill:#111827}.metric{font:800 24px Arial,sans-serif;fill:#111827}.panelTitle{font:800 14px Arial,sans-serif;letter-spacing:.4px;fill:#111827}.tableHead{font:800 11px Arial,sans-serif;letter-spacing:.7px;fill:#111827}.label{font:800 14px Arial,sans-serif;fill:#111827}.small{font:12px Arial,sans-serif;fill:#111827}.tiny{font:10px Arial,sans-serif;fill:#4b5563}.tinyStrong{font:700 10px Arial,sans-serif;fill:#111827}.callout{font:700 10.5px Arial,sans-serif;letter-spacing:.3px;fill:#111827}.badge{font:700 12px Arial,sans-serif;fill:#111827}.stamp{font:800 9px Arial,sans-serif;letter-spacing:.3px;fill:#111827}</style></defs><rect width="100%" height="100%" fill="#ffffff"/><g><rect x="24" y="24" width="1272" height="972" fill="none" stroke="#111827" stroke-width="2.4"/><rect x="36" y="36" width="1248" height="948" fill="none" stroke="#111827" stroke-width="0.7"/><line x1="1038" y1="36" x2="1038" y2="984" stroke="#111827" stroke-width="1.8"/></g><text x="72" y="104" class="drawingTitle">PROFESSIONAL PLAN-SET RENDER PREVIEW</text><text x="72" y="126" class="small">Deterministic SVG review package benchmarked against residential solar permit-set drafting conventions.</text><line x1="72" y1="138" x2="852" y2="138" stroke="#111827" stroke-width="1.8"/><g><rect x="72" y="160" width="390" height="188" fill="#fff" stroke="#111827" stroke-width="1.1"/><rect x="72" y="160" width="390" height="30" fill="#f3f4f6" stroke="#111827" stroke-width="1.1"/><text x="82" y="180" class="tableHead">SYSTEM SUMMARY</text><line x1="72" y1="190" x2="462" y2="190" stroke="#e5e7eb"/><text x="82" y="210" class="tiny">Source type</text><text x="240" y="210" class="tinyStrong">standalone</text><line x1="72" y1="221" x2="462" y2="221" stroke="#e5e7eb"/><text x="82" y="241" class="tiny">Render state</text><text x="240" y="241" class="tinyStrong">render_review_required</text><line x1="72" y1="252" x2="462" y2="252" stroke="#e5e7eb"/><text x="82" y="272" class="tiny">Render confidence</text><text x="240" y="272" class="tinyStrong">64/100</text><line x1="72" y1="283" x2="462" y2="283" stroke="#e5e7eb"/><text x="82" y="303" class="tiny">Preview layers</text><text x="240" y="303" class="tinyStrong">2</text><line x1="72" y1="314" x2="462" y2="314" stroke="#e5e7eb"/><text x="82" y="334" class="tiny">Review callouts</text><text x="240" y="334" class="tinyStrong">7</text></g><g><rect x="492" y="160" width="360" height="188" fill="#fff" stroke="#111827" stroke-width="1.1"/><rect x="492" y="160" width="360" height="30" fill="#f3f4f6" stroke="#111827" stroke-width="1.1"/><text x="502" y="180" class="tableHead">SHEET INDEX</text><line x1="492" y1="190" x2="852" y2="190" stroke="#e5e7eb"/><text x="502" y="210" class="tiny">A-000</text><text x="647" y="210" class="tinyStrong">Cover / Render Readiness Summary</text><line x1="492" y1="242" x2="852" y2="242" stroke="#e5e7eb"/><text x="502" y="262" class="tiny">A-101</text><text x="647" y="262" class="tinyStrong">Roof / Site Plan Render Preview</text><line x1="492" y1="294" x2="852" y2="294" stroke="#e5e7eb"/><text x="502" y="314" class="tiny">A-201</text><text x="647" y="314" class="tinyStrong">Photo Evidence / Review Callouts</text></g><g><rect x="72" y="382" width="780" height="190" fill="#fff" stroke="#111827" stroke-width="1.1"/><rect x="72" y="382" width="780" height="30" fill="#f3f4f6" stroke="#111827" stroke-width="1.1"/><text x="82" y="402" class="tableHead">COMMERCIAL RENDER LAYERS</text><line x1="72" y1="412" x2="852" y2="412" stroke="#e5e7eb"/><text x="82" y="432" class="tiny">1</text><text x="407" y="432" class="tinyStrong">evidence review callouts</text><line x1="72" y1="492" x2="852" y2="492" stroke="#e5e7eb"/><text x="82" y="512" class="tiny">2</text><text x="407" y="512" class="tinyStrong">render confidence notes</text></g><g><rect x="72" y="604" width="780" height="168" fill="#fff" stroke="#111827" stroke-width="1.1"/><rect x="72" y="604" width="780" height="30" fill="#f3f4f6" stroke="#111827" stroke-width="1.1"/><text x="82" y="624" class="tableHead">GEOMETRY / TRUST INDICATORS</text><line x1="72" y1="634" x2="852" y2="634" stroke="#e5e7eb"/><text x="82" y="654" class="tiny">Geometry trust</text><text x="407" y="654" class="tinyStrong">90/100</text><line x1="72" y1="668" x2="852" y2="668" stroke="#e5e7eb"/><text x="82" y="688" class="tiny">Topology integrity</text><text x="407" y="688" class="tinyStrong">100/100</text><line x1="72" y1="702" x2="852" y2="702" stroke="#e5e7eb"/><text x="82" y="722" class="tiny">Readiness trust</text><text x="407" y="722" class="tinyStrong">68/100</text><line x1="72" y1="736" x2="852" y2="736" stroke="#e5e7eb"/><text x="82" y="756" class="tiny">Discrepancy severity</text><text x="407" y="756" class="tinyStrong">0/100</text></g><g><rect x="884" y="160" width="116" height="612" fill="#fff" stroke="#111827" stroke-width="1.1"/><rect x="884" y="160" width="116" height="28" fill="#f3f4f6" stroke="#111827" stroke-width="1.1"/><text x="892" y="179" class="tableHead">REVIEW NOTES</text><text x="892" y="212" class="tiny">PREVIEW ONLY</text><text x="892" y="240" class="tiny">NOT STAMPED</text><text x="892" y="268" class="tiny">NO CAD MUTATION</text><text x="892" y="296" class="tiny">NO PERMIT AUTHORITY</text><text x="892" y="324" class="tiny">OPERATOR REVIEW REQUIRED …</text></g><g><rect x="1038" y="36" width="246" height="948" fill="#fff" stroke="#111827" stroke-width="1.1"/><rect x="1038" y="36" width="246" height="92" fill="#f3f4f6" stroke="#111827" stroke-width="1.1"/><text x="1056" y="76" class="title">SolarPro</text><text x="1056" y="102" class="small">SolarPro Preview</text><rect x="1038" y="128" width="246" height="58" fill="#fff" stroke="#111827" stroke-width="0.7"/><text x="1052" y="150" class="tiny">PROJECT</text><text x="1052" y="174" class="tinyStrong">expanded-project-001</text><rect x="1038" y="186" width="246" height="58" fill="#fff" stroke="#111827" stroke-width="0.7"/><text x="1052" y="208" class="tiny">CLIENT / INSTALLER</text><text x="1052" y="232" class="tinyStrong">demo-client / SolarPro deal…</text><rect x="1038" y="244" width="246" height="58" fill="#fff" stroke="#111827" stroke-width="0.7"/><text x="1052" y="266" class="tiny">SURVEY</text><text x="1052" y="290" class="tinyStrong">expanded-document-partial-0…</text><rect x="1038" y="302" width="246" height="58" fill="#fff" stroke="#111827" stroke-width="0.7"/><text x="1052" y="324" class="tiny">SYSTEM</text><text x="1052" y="348" class="tinyStrong">roof</text><rect x="1038" y="360" width="246" height="58" fill="#fff" stroke="#111827" stroke-width="0.7"/><text x="1052" y="382" class="tiny">DATE</text><text x="1052" y="406" class="tinyStrong">1970-01-01</text><rect x="1038" y="418" width="246" height="58" fill="#fff" stroke="#111827" stroke-width="0.7"/><text x="1052" y="440" class="tiny">SCALE</text><text x="1052" y="464" class="tinyStrong">AS NOTED</text><rect x="1038" y="476" width="246" height="58" fill="#fff" stroke="#111827" stroke-width="0.7"/><text x="1052" y="498" class="tiny">DRAWN / CHECKED</text><text x="1052" y="522" class="tinyStrong">SOLARPRO / OPERATOR</text><rect x="1038" y="534" width="246" height="58" fill="#fff" stroke="#111827" stroke-width="0.7"/><text x="1052" y="556" class="tiny">STATUS / CONF</text><text x="1052" y="580" class="tinyStrong">render_review_required · 64…</text><rect x="1038" y="806" width="246" height="96" fill="#f3f4f6" stroke="#111827" stroke-width="1.1"/><text x="1056" y="836" class="small">SHEET NAME</text><text x="1056" y="862" class="tinyStrong">Cover / Render Readiness Summary</text><rect x="1038" y="902" width="246" height="82" fill="#fff" stroke="#111827" stroke-width="1.1"/><text x="1056" y="928" class="small">SHEET NUMBER</text><text x="1056" y="968" class="sheetno">A-000</text></g><g><rect x="72" y="44" width="318" height="30" fill="#ecfdf5" stroke="#166534" stroke-width="1.1"/><text x="231" y="64" text-anchor="middle" class="stamp">NON-AUTHORITATIVE PREVIEW · QUALITY QA ONLY · 64/100</text></g></svg>